<svg xmlns="http://www.w3.org/2000/svg" viewBox="0 0 32 32" fill="white">
  <path d="M16 .5C7.5.5.5 7.5.5 16c0 2.7.7 5.3 2.1 7.6L.8 31l7.6-1.9C10.7 30.8 13.3 31.5 16 31.5 24.5 31.5 31.5 24.5 31.5 16S24.5.5 16 .5zm0 28.1c-2.4 0-4.8-.6-6.9-1.8l-.5-.3-4.5 1.1 1.2-4.4-.3-.5C4 20.5 3.4 18.3 3.4 16 3.4 8.9 8.9 3.4 16 3.4S28.6 8.9 28.6 16 23.1 28.6 16 28.6zm7.2-10.6c-.4-.2-2.4-1.2-2.8-1.3-.4-.1-.7-.2-1 .2-.3.4-1.1 1.3-1.3 1.6-.2.3-.5.3-.9.1s-1.8-.7-3.4-2.1c-1.3-1.1-2.1-2.4-2.4-2.8-.3-.4 0-.6.2-.8.2-.2.4-.5.6-.7.2-.2.2-.4.3-.6.1-.2 0-.5 0-.7 0-.2-1-2.3-1.4-3.1-.4-.8-.8-.7-1.1-.7h-.9c-.3 0-.7.1-1 .5-.3.4-1.3 1.3-1.3 3.2 0 1.9 1.3 3.7 1.4 3.9.2.3 2.6 4 6.4 5.5.9.4 1.6.6 2.1.8.9.3 1.7.3 2.3.2.7-.1 2.4-1 2.8-2 .4-1 .4-1.8.3-2-.1-.2-.3-.3-.7-.5z"></path>
</svg>
